Coordinates
version=1
nRows=32
nColumns=22
inDegrees=yes

Units are S.I. units (second, meters, Newtons, ...)
If the header above contains a line with 'inDegrees', this indicates whether rotational values are in degrees (yes) or radians (no).

endheader
time	pelvis_tilt	pelvis_list	pelvis_rotation	pelvis_tx	pelvis_ty	pelvis_tz	hip_flexion_r	hip_adduction_r	hip_rotation_r	knee_angle_r	ankle_angle_r	subtalar_angle_r	hip_flexion_l	hip_adduction_l	hip_rotation_l	knee_angle_l	ankle_angle_l	subtalar_angle_l	lumbar_extension	lumbar_bending	lumbar_rotation
      0.01000000	      0.37756112	     -1.63777936	      0.55962002	     -1.13092591	      1.08062650	     -0.56332394	     -3.09872039	      2.20204629	     -2.19858280	     -7.13799169	     10.17125844	     -3.60900393	     -1.42346735	     -1.45814666	     -2.87261073	    -10.90836309	     13.07317058	     -0.47332880	     -2.83527025	     -1.79501214	     -4.83024967
      0.02000000	      0.37673892	     -1.64273916	      0.56525086	     -1.13096413	      1.08062851	     -0.56340845	     -3.09667760	      2.20363356	     -2.19697752	     -7.13580279	     10.16895859	     -3.60911891	     -1.42070485	     -1.45943953	     -2.87392050	    -10.90589401	     13.07536661	     -0.47345954	     -2.84114961	     -1.80207996	     -4.82435507
      0.03000000	      0.37887933	     -1.64731943	      0.56733150	     -1.13099935	      1.08063162	     -0.56350238	     -3.09723368	      2.20380312	     -2.19632142	     -7.13448645	     10.15715130	     -3.60989854	     -1.41785625	     -1.45906053	     -2.86989292	    -10.91275100	     13.08347895	     -0.47428912	     -2.84804947	     -1.81367717	     -4.78979578
      0.04000000	      0.37780721	     -1.65285317	      0.57203898	     -1.13104247	      1.08063210	     -0.56361591	     -3.09379889	      2.20428439	     -2.19545731	     -7.13373253	     10.15628011	     -3.60994261	     -1.41537989	     -1.45908567	     -2.87143087	    -10.90879744	     13.08450110	     -0.47451824	     -2.85468511	     -1.82063499	     -4.78469881
      0.05000000	      0.38018827	     -1.65443743	      0.57265330	     -1.13108337	      1.08063630	     -0.56372630	     -3.08907065	      2.19981677	     -2.19742890	     -7.14356324	     10.15009246	     -3.60995480	     -1.41393235	     -1.45447033	     -2.86722579	    -10.91255612	     13.08770145	     -0.47647810	     -2.86310762	     -1.83650551	     -4.74950790
      0.06000000	      0.37883890	     -1.65950703	      0.57637480	     -1.13112578	      1.08063627	     -0.56385527	     -3.08468408	      2.19920846	     -2.19682007	     -7.14312833	     10.15012901	     -3.60985948	     -1.41164115	     -1.45263468	     -2.86882182	    -10.90856436	     13.08816776	     -0.47687563	     -2.87003687	     -1.84220090	     -4.74572756
      0.07000000	      0.38072948	     -1.65545272	      0.57461136	     -1.13117317	      1.08063798	     -0.56397462	     -3.07345632	      2.18794116	     -2.19862816	     -7.16320357	     10.14956214	     -3.60860302	     -1.41054754	     -1.44064963	     -2.86438932	    -10.91084829	     13.08805476	     -0.48127431	     -2.87980316	     -1.86247082	     -4.71648165
      0.08000000	      0.37933428	     -1.66003505	      0.57930425	     -1.13120754	      1.08063660	     -0.56411086	     -3.06946355	      2.18626523	     -2.19779866	     -7.16367382	     10.15035275	     -3.60842354	     -1.40837514	     -1.43841244	     -2.86620190	    -10.90639071	     13.08805619	     -0.48192251	     -2.88529719	     -1.86738872	     -4.71423429
      0.09000000	      0.37938372	     -1.65360804	      0.58108636	     -1.13124815	      1.08063616	     -0.56423351	     -3.05393198	      2.17296792	     -2.19893348	     -7.18951818	     10.15356654	     -3.60699393	     -1.40854231	     -1.42410542	     -2.86014872	    -10.90241202	     13.08459929	     -0.48849956	     -2.89147366	     -1.88947378	     -4.70125293
      0.10000000	      0.37728285	     -1.65772051	      0.58548455	     -1.13128518	      1.08063346	     -0.56438000	     -3.04936777	      2.17049617	     -2.19893272	     -7.18861622	     10.15457732	     -3.60693821	     -1.40603313	     -1.42030324	     -2.86157417	    -10.89721451	     13.08431988	     -0.48927204	     -2.89735070	     -1.89138710	     -4.69963801
      0.11000000	      0.37107632	     -1.64708914	      0.58692135	     -1.13132080	      1.08062657	     -0.56451665	     -3.02582712	      2.15164314	     -2.20772581	     -7.21685006	     10.15996214	     -3.60714008	     -1.40879979	     -1.39963690	     -2.85095370	    -10.87515802	     13.07584017	     -0.50057754	     -2.89633633	     -1.91354326	     -4.69723293
      0.12000000	      0.36923439	     -1.65126296	      0.59395507	     -1.13135165	      1.08062291	     -0.56466478	     -3.02178334	      2.14983387	     -2.20726297	     -7.21593250	     10.16084423	     -3.60725980	     -1.40722975	     -1.39644197	     -2.85261091	    -10.87022211	     13.07528541	     -0.50142648	     -2.90041675	     -1.91553370	     -4.69548294
      0.13000000	      0.36637038	     -1.65461680	      0.60286030	     -1.13138768	      1.08061630	     -0.56481785	     -3.01550045	      2.14684246	     -2.20691261	     -7.21692915	     10.16122909	     -3.60756650	     -1.40651722	     -1.39254475	     -2.85470409	    -10.86010402	     13.07485393	     -0.50267089	     -2.90484713	     -1.91801193	     -4.69478930
      0.14000000	      0.35594185	     -1.64805061	      0.60455387	     -1.13138231	      1.08060306	     -0.56495715	     -2.99376649	      2.13247210	     -2.21715995	     -7.23586464	     10.16257985	     -3.61049307	     -1.42096479	     -1.37650479	     -2.85059081	    -10.81155692	     13.06776573	     -0.51128826	     -2.89093763	     -1.93230791	     -4.70814297
      0.15000000	      0.35252678	     -1.65055030	      0.61144469	     -1.13142507	      1.08059367	     -0.56512474	     -2.98716184	      2.12735366	     -2.21782012	     -7.23413985	     10.16362013	     -3.61104387	     -1.41960774	     -1.37032831	     -2.85145285	    -10.80257410	     13.06625366	     -0.51246678	     -2.89691567	     -1.93040039	     -4.70632248
      0.16000000	      0.33316797	     -1.62375690	      0.61756360	     -1.13141862	      1.08057041	     -0.56529217	     -2.95410562	      2.08952981	     -2.24642382	     -7.25706558	     10.18193010	     -3.62240190	     -1.43308799	     -1.32876590	     -2.81635707	    -10.73804479	     13.02063052	     -0.53959674	     -2.87329023	     -1.96498614	     -4.70991909
      0.17000000	      0.32551163	     -1.62434562	      0.62393494	     -1.13142495	      1.08055563	     -0.56545224	     -2.94298443	      2.08252232	     -2.25056176	     -7.26066385	     10.18321350	     -3.62498510	     -1.44071619	     -1.32134574	     -2.82567894	    -10.70678581	     13.02032496	     -0.54703752	     -2.86780727	     -1.96434401	     -4.72808018
      0.18000000	      0.31567071	     -1.62167858	      0.62892842	     -1.13142324	      1.08053927	     -0.56561744	     -2.92852896	      2.07112035	     -2.26147149	     -7.26730217	     10.18428752	     -3.62845552	     -1.45163837	     -1.30908893	     -2.82555752	    -10.66669780	     13.01342976	     -0.55576971	     -2.85873397	     -1.96538399	     -4.74093988
      0.19000000	      0.30164976	     -1.60460426	      0.64106837	     -1.13143078	      1.08051909	     -0.56580189	     -2.90638434	      2.04341983	     -2.29020905	     -7.28153412	     10.19509492	     -3.63724568	     -1.45760898	     -1.27902329	     -2.79498999	    -10.62520845	     12.97675952	     -0.58346969	     -2.84731499	     -1.98314360	     -4.75051790
      0.20000000	      0.29404668	     -1.60473550	      0.64797785	     -1.13143324	      1.08050511	     -0.56596924	     -2.89636045	      2.03513821	     -2.29553759	     -7.28657801	     10.19507712	     -3.63857824	     -1.46446234	     -1.27084637	     -2.80259743	    -10.59565461	     12.97673406	     -0.58997969	     -2.84304987	     -1.97929877	     -4.76886102
      0.21000000	      0.28475864	     -1.60108119	      0.65465104	     -1.13143075	      1.08049035	     -0.56614171	     -2.88313772	      2.02209924	     -2.30861677	     -7.29549255	     10.19536282	     -3.63973193	     -1.47273503	     -1.25736490	     -2.80004268	    -10.56029499	     12.96869247	     -0.59785143	     -2.83669754	     -1.97864721	     -4.78482807
      0.22000000	      0.28069002	     -1.60259531	      0.66300165	     -1.13145282	      1.08048076	     -0.56631780	     -2.87877776	      2.01469592	     -2.30937849	     -7.29564782	     10.19553937	     -3.63988155	     -1.47152741	     -1.25075257	     -2.80127689	    -10.55138439	     12.96741322	     -0.59883551	     -2.84206352	     -1.97179640	     -4.78461010
      0.23000000	      0.27001703	     -1.59464772	      0.66855131	     -1.13143062	      1.08046685	     -0.56648222	     -2.86046399	      1.99715417	     -2.32698624	     -7.31390677	     10.19501460	     -3.63973336	     -1.48726286	     -1.23251347	     -2.79542097	    -10.49974507	     12.95416276	     -0.60638853	     -2.83066510	     -1.97661683	     -4.81256045
      0.24000000	      0.26645707	     -1.59572692	      0.67649582	     -1.13144920	      1.08045770	     -0.56665535	     -2.85648702	      1.98947706	     -2.32814706	     -7.31394117	     10.19561318	     -3.63972446	     -1.48588876	     -1.22546445	     -2.79519443	    -10.49240997	     12.95203882	     -0.60730588	     -2.83612277	     -1.97016920	     -4.81097223
      0.25000000	      0.25637759	     -1.58177441	      0.68219468	     -1.13142937	      1.08044732	     -0.56681967	     -2.83490845	      1.96531546	     -2.35199576	     -7.33900427	     10.19886404	     -3.63839119	     -1.50501767	     -1.19976856	     -2.77714449	    -10.43484929	     12.92904870	     -0.61698733	     -2.82554670	     -1.98215111	     -4.83383874
      0.26000000	      0.25388146	     -1.58266558	      0.69063696	     -1.13144532	      1.08044086	     -0.56699024	     -2.83175164	      1.95793587	     -2.35257647	     -7.33928736	     10.20002523	     -3.63831937	     -1.50382818	     -1.19252406	     -2.77681955	    -10.42922896	     12.92685968	     -0.61796932	     -2.83036935	     -1.97574518	     -4.83102245
      0.27000000	      0.24826198	     -1.55407692	      0.70146409	     -1.13144271	      1.08043535	     -0.56716464	     -2.81161990	      1.91770996	     -2.38939260	     -7.36890467	     10.22695052	     -3.63455228	     -1.52359597	     -1.14958448	     -2.73379463	    -10.37782400	     12.87925366	     -0.64227135	     -2.82715362	     -2.00650836	     -4.83621978
      0.28000000	      0.24692374	     -1.55340918	      0.70826019	     -1.13143963	      1.08042899	     -0.56732794	     -2.80457608	      1.90883763	     -2.38869180	     -7.38123282	     10.22845535	     -3.63401053	     -1.53226039	     -1.14056720	     -2.73821130	    -10.35715175	     12.88008252	     -0.64890195	     -2.82689401	     -2.00089322	     -4.84968556
      0.29000000	      0.24694079	     -1.54978441	      0.71368273	     -1.13143767	      1.08042388	     -0.56749192	     -2.79494905	      1.89627283	     -2.39372546	     -7.40069974	     10.23558556	     -3.63408811	     -1.54546790	     -1.12746762	     -2.73352935	    -10.33124099	     12.87738138	     -0.65714223	     -2.82679330	     -1.99847773	     -4.85453849
      0.30000000	      0.24725832	     -1.55091213	      0.72384126	     -1.13144364	      1.08041621	     -0.56766453	     -2.79343527	      1.88963296	     -2.39231263	     -7.40434324	     10.23642969	     -3.63430826	     -1.54690890	     -1.12038967	     -2.73501543	    -10.32711677	     12.87728417	     -0.65789866	     -2.82696078	     -1.99015834	     -4.85216421
      0.31000000	      0.24832955	     -1.55144259	      0.73420425	     -1.13144756	      1.08040759	     -0.56784211	     -2.79123190	      1.88188799	     -2.39104741	     -7.41124732	     10.23768160	     -3.63472103	     -1.55004684	     -1.11245060	     -2.73623325	    -10.32132835	     12.87784066	     -0.65885669	     -2.82585221	     -1.98117334	     -4.85154313
      0.32000000	      0.25205073	     -1.54179474	      0.73931740	     -1.13146510	      1.08039801	     -0.56801495	     -2.77239280	      1.86196151	     -2.40452066	     -7.45415489	     10.25564468	     -3.63802907	     -1.57005006	     -1.09141599	     -2.72417571	    -10.28839035	     12.88300916	     -0.66841223	     -2.82951442	     -1.98210449	     -4.87181873
